<svg xmlns="http://www.w3.org/2000/svg" viewBox="0 0 24 24" aria-hidden="true">
  <path fill="#f8fafc" d="M12 .5A11.5 11.5 0 0 0 8.36 22.9c.58.11.79-.25.79-.56v-2.02c-3.22.7-3.9-1.38-3.9-1.38-.53-1.34-1.29-1.7-1.29-1.7-1.05-.72.08-.7.08-.7 1.17.08 1.79 1.2 1.79 1.2 1.04 1.78 2.73 1.27 3.4.97.11-.75.41-1.27.74-1.56-2.57-.29-5.27-1.28-5.27-5.72 0-1.26.45-2.3 1.2-3.11-.12-.29-.52-1.47.11-3.07 0 0 .98-.31 3.18 1.19A11.1 11.1 0 0 1 12 6.05c.98 0 1.95.13 2.87.39 2.2-1.5 3.17-1.19 3.17-1.19.64 1.6.24 2.78.12 3.07.75.81 1.19 1.85 1.19 3.11 0 4.45-2.71 5.43-5.29 5.72.42.36.79 1.06.79 2.15v3.04c0 .31.21.68.8.56A11.5 11.5 0 0 0 12 .5Z"/>
</svg>
